# xmcd
#
# Track frame offsets:
#	150
#	15689
#	33002
#	50497
#	67444
#	83346
#	103761
#	124365
#	137495
#	152193
#	168993
#	187883
#	203947
#	220983
#
# Disc length: 3217 seconds
#
# Revision: 0
# Processed by: cddbd v1.5.1PL2 Copyright (c) Steve Scherf et al.
# Submitted via: dBpowerAMP V4.0
#
DISCID=c20c8f0e
DTITLE=Ingebjørg-Andrea, Irene og Henriette Vestvik - I Guds lys
DYEAR=1900
DGENRE=Gospel
TTITLE0=I evighet
TTITLE1=He can heal
TTITLE2=Jeg vil gi deg, o Herre
TTITLE3=Du mester er
TTITLE4=Makten og æren
TTITLE5=Gud din nåde/Min Gud skal ha ære
TTITLE6=Alt for meg
TTITLE7=Legedom
TTITLE8=Bare du min Jesus
TTITLE9=Du er hellig/Ingen er som du
TTITLE10=Come to me
TTITLE11=Hvilken dag det skal bli
TTITLE12=Jeg gir deg mitt liv
TTITLE13=Mercy seat
EXTD=
EXTT0=
EXTT1=
EXTT2=
EXTT3=
EXTT4=
EXTT5=
EXTT6=
EXTT7=
EXTT8=
EXTT9=
EXTT10=
EXTT11=
EXTT12=
EXTT13=
PLAYORDER=
